<?xml version="1.0" standalone="yes"?>
<svg xmlns="http://www.w3.org/2000/svg" width="492" height="446">
<path style="fill:#000000; stroke:none;" d="M0 0L0 446L492 446L492 0L0 0z"/>
<path style="fill:#818080; stroke:none;" d="M259 49L258 55C259.495 52.8149 259.889 51.508 259 49z"/>
<path style="fill:#737373; stroke:none;" d="M260 50L259 55L258 53C250.467 64.9713 247.07 81.6643 242.308 95C233.258 120.342 223.328 145.405 215 171C221.059 169.685 224.591 166.557 229.801 172.139C235.842 178.611 238.197 191.715 241 200C247.773 220.017 254.328 240.159 261.593 260C264.127 266.923 266.757 273.975 268.986 281C269.878 283.812 269.927 287.542 273 288L273 296L272 292C270.699 294.893 270.443 298.115 269 301C267.177 304.645 264.285 307.656 262 311C269.05 313.071 277.664 312 285 312L327 312C337.076 312 349.317 313.862 359 311C355.225 307.011 350.905 303.738 347.954 298.999C344.169 292.919 342.346 285.686 339.95 279C335.303 266.034 330.926 252.975 326.308 240C311.289 197.801 297.034 155.314 282.344 113C277.252 98.3316 272.402 83.5766 267.053 69C264.838 62.9625 263.275 55.4312 260 50z"/>
<path style="fill:#585458; stroke:none;" d="M262.333 56.6667C262.278 56.7222 262.222 57.7777 262.667 57.3333C262.722 57.2778 262.778 56.2221 262.333 56.6667z"/>
<path style="fill:#5a5a5a; stroke:none;" d="M263.333 59.6667C263.278 59.7222 263.222 60.7778 263.667 60.3333C263.722 60.2778 263.778 59.2222 263.333 59.6667z"/>
<path style="fill:#626262; stroke:none;" d="M230.333 128.667C230.278 128.722 230.222 129.778 230.667 129.333C230.722 129.278 230.778 128.222 230.333 128.667z"/>
<path style="fill:#616161; stroke:none;" d="M220 168C222.052 168.874 223.747 168.953 226 169C223.948 168.126 222.253 168.047 220 168M215 171L215 173C216.635 172.455 216.455 172.635 217 171L215 171z"/>
<path style="fill:#606060; stroke:none;" d="M199 185L199 189L201 189L201 185L199 185z"/>
<path style="fill:#737373; stroke:none;" d="M199 189C196.381 201.697 195.132 216.038 181.715 222.221C178.164 223.857 173.845 224.482 170 225C170 227.862 166.686 228.71 164 229C169.295 231.284 175.542 231.244 181 233.475C191.688 237.846 197.929 249.762 197 261C198.195 260.402 197.977 260.534 199 259C199.728 260.821 200.719 260.824 201 263C203.854 257.513 203.564 250.753 206.327 245C211.503 234.225 223.744 230.234 235 230C235.131 228.359 235.369 227.544 236 226C226.575 225.594 214.865 222.733 208.789 214.907C203.35 207.9 202.086 197.548 201 189L199 189z"/>
<path style="fill:#676767; stroke:none;" d="M181.667 222.333C181.222 222.778 182.278 222.722 182.333 222.667C182.778 222.222 181.722 222.278 181.667 222.333z"/>
<path style="fill:#6f6c6c; stroke:none;" d="M163 226C164.506 226.683 165.315 226.826 167 227C165.494 226.317 164.685 226.174 163 226z"/>
<path style="fill:#8d8b8d; stroke:none;" d="M160 227C163.85 229.628 166.895 228.466 171 227C167.569 225.769 163.651 226.925 160 227z"/>
<path style="fill:#747474; stroke:none;" d="M157 227C158.54 228.803 159.597 228.832 162 229C160.25 227.745 159.143 227.386 157 227z"/>
<path style="fill:#898989; stroke:none;" d="M234 228C236.587 229.065 238.321 228.781 241 228C238.413 226.935 236.679 227.218 234 228z"/>
<path style="fill:#665c5c; stroke:none;" d="M196 251L196 254C196.696 252.446 196.696 252.554 196 251z"/>
<path style="fill:#5d5d5d; stroke:none;" d="M197 255L197 258C197.696 256.446 197.696 256.554 197 255z"/>
<path style="fill:#5e5e5e; stroke:none;" d="M198 259L198 265C198.951 262.715 198.951 261.285 198 259z"/>
<path style="fill:#848383; stroke:none;" d="M200 260C199.356 262.106 199.094 263.795 199 266C200.654 263.823 200.994 262.575 200 260z"/>
<path style="fill:#656263; stroke:none;" d="M200 265L199 269C200.146 267.36 200.393 266.924 200 265z"/>
<path style="fill:#535353; stroke:none;" d="M200 267L199 271C200.656 269.596 200.751 269.046 200 267z"/>
<path style="fill:#616161; stroke:none;" d="M247 271C248.618 270.182 249.423 269.485 251 270C252.565 265.878 248.065 268.755 247 271z"/>
<path style="fill:#817977; stroke:none;" d="M250 268C244.061 275.175 239.777 283.898 235.219 292C232.194 297.377 227.372 303.757 221 305L221 307L219 306C222.93 310.294 228.68 303.503 232 301C230.835 304.187 230.133 307.171 234 308C230.976 298.557 240.386 286.802 245.129 278.996C247.245 275.512 250.979 272.256 250 268z"/>
<path style="fill:#48484e; stroke:none;" d="M246 271C244.739 273.01 243.81 274.778 243 277C245.153 275.115 246.41 273.888 246 271z"/>
<path style="fill:#5d5d46; stroke:none;" d="M249 272L250 273L249 272z"/>
<path style="fill:#918684; stroke:none;" d="M180 273L180 275L182 275C181.455 273.365 181.635 273.545 180 273z"/>
<path style="fill:#6d6d49; stroke:none;" d="M181 273L182 274L181 273z"/>
<path style="fill:#636261; stroke:none;" d="M178 274C174.881 278.459 170.412 282.245 171 288L180 279C180.077 281.645 179.997 283.266 182 285C181.724 280.36 182.959 275.994 178 274z"/>
<path style="fill:#8b7b6b; stroke:none;" d="M182 274L182 279C182.83 276.969 182.83 276.03 182 274z"/>
<path style="fill:#695441; stroke:none;" d="M183 275L182 285C183.704 281.796 184.389 278.407 183 275z"/>
<path style="fill:#5d5151; stroke:none;" d="M247 275L248 276L247 275z"/>
<path style="fill:#555555; stroke:none;" d="M246.333 276.667C246.278 276.722 246.222 277.778 246.667 277.333C246.722 277.278 246.778 276.222 246.333 276.667z"/>
<path style="fill:#000000; stroke:none;" d="M180.333 277.667C180.278 277.722 180.222 278.778 180.667 278.333C180.722 278.278 180.778 277.222 180.333 277.667z"/>
<path style="fill:#4e555e; stroke:none;" d="M242 277L240 283C241.909 281.12 242.911 279.458 244 277L242 277z"/>
<path style="fill:#625147; stroke:none;" d="M245 278C244.014 279.479 244 279.203 244 281C245.289 279.557 245.401 279.766 245 278z"/>
<path style="fill:#000000; stroke:none;" d="M165 298C167.568 298.11 171.263 299.25 173.697 298.307C178.557 296.424 179.951 283.469 180 279C173.217 282.465 168.5 291.425 165 298z"/>
<path style="fill:#70655e; stroke:none;" d="M191 280L193 283C194.118 280.86 193.251 280.473 191 280z"/>
<path style="fill:#8f857b; stroke:none;" d="M181.333 281.667C181.278 281.722 181.222 282.778 181.667 282.333C181.722 282.278 181.778 281.222 181.333 281.667z"/>
<path style="fill:#8e8380; stroke:none;" d="M189 284L193 282C190.692 281.442 190.244 282.004 189 284z"/>
<path style="fill:#61524a; stroke:none;" d="M194 281L194 288C195.059 285.466 195.059 283.534 194 281z"/>
<path style="fill:#665544; stroke:none;" d="M243.333 281.667C243.278 281.722 243.222 282.778 243.667 282.333C243.722 282.278 243.778 281.222 243.333 281.667z"/>
<path style="fill:#4c453e; stroke:none;" d="M191 282C191.545 283.635 191.365 283.455 193 284L193 282L191 282z"/>
<path style="fill:#808080; stroke:none;" d="M239 282L240 283L239 282z"/>
<path style="fill:#555555; stroke:none;" d="M190.333 283.667C190.278 283.722 190.222 284.778 190.667 284.333C190.722 284.278 190.778 283.222 190.333 283.667z"/>
<path style="fill:#808080; stroke:none;" d="M191 283L192 284L191 283z"/>
<path style="fill:#978780; stroke:none;" d="M193 283C192.155 285.695 191.343 288.194 191 291C193.352 288.491 194.272 286.295 193 283z"/>
<path style="fill:#4c5559; stroke:none;" d="M239 283C238.11 284.745 237.547 286.125 237 288C238.693 286.218 239.375 285.419 239 283z"/>
<path style="fill:#7f6a68; stroke:none;" d="M188 284C187.014 285.479 187 285.203 187 287C188.289 285.557 188.401 285.766 188 284z"/>
<path style="fill:#573c31; stroke:none;" d="M189.333 284.667C189.278 284.722 189.222 285.778 189.667 285.333C189.722 285.278 189.778 284.222 189.333 284.667z"/>
<path style="fill:#000000; stroke:none;" d="M191.667 284.333C191.222 284.778 192.278 284.722 192.333 284.667C192.778 284.222 191.722 284.278 191.667 284.333z"/>
<path style="fill:#8f8071; stroke:none;" d="M180 285L180 288C180.696 286.446 180.696 286.554 180 285z"/>
<path style="fill:#56483e; stroke:none;" d="M181 285L180 292C181.663 289.565 182.078 287.773 181 285z"/>
<path style="fill:#806666; stroke:none;" d="M191.667 285.333C191.222 285.778 192.278 285.722 192.333 285.667C192.778 285.222 191.722 285.278 191.667 285.333z"/>
<path style="fill:#655341; stroke:none;" d="M241 285C240.014 286.479 240 286.203 240 288C241.289 286.557 241.401 286.766 241 285z"/>
<path style="fill:#73726d; stroke:none;" d="M179 286C177.882 289.158 177.653 291.669 178 295C179.886 291.979 180.786 289.193 179 286z"/>
<path style="fill:#675552; stroke:none;" d="M188 286C186.368 287.926 186.034 288.511 186 291C187.554 289.218 188.242 288.329 188 286z"/>
<path style="fill:#404040; stroke:none;" d="M191 286L192 287L191 286z"/>
<path style="fill:#737270; stroke:none;" d="M169 287C166.785 290.259 164.528 293.367 163 297C166.745 294.766 169.286 290.981 171 287L169 287z"/>
<path style="fill:#605540; stroke:none;" d="M193 288L192 292C193.303 290.332 193.553 290.008 193 288z"/>
<path style="fill:#4a4a55; stroke:none;" d="M236 288C235.11 289.745 234.547 291.125 234 293C235.693 291.218 236.375 290.419 236 288z"/>
<path style="fill:#605850; stroke:none;" d="M239 288L238 292C239.303 290.332 239.553 290.008 239 288z"/>
<path style="fill:#838182; stroke:none;" d="M272 288L272 296C273.161 293.23 273.161 290.77 272 288z"/>
<path style="fill:#5a5a5a; stroke:none;" d="M169.333 289.667C169.278 289.722 169.222 290.778 169.667 290.333C169.722 290.278 169.778 289.222 169.333 289.667z"/>
<path style="fill:#867971; stroke:none;" d="M184 290L181 297C183.712 295.226 184.744 292.967 186 290L184 290z"/>
<path style="fill:#7b7671; stroke:none;" d="M189 290C189.98 291.783 189.908 291.594 192 292C190.777 290.805 190.58 290.684 189 290z"/>
<path style="fill:#544d42; stroke:none;" d="M185.333 291.667C185.278 291.722 185.222 292.778 185.667 292.333C185.722 292.278 185.778 291.222 185.333 291.667z"/>
<path style="fill:#5c4f46; stroke:none;" d="M167.333 292.667C167.278 292.722 167.222 293.778 167.667 293.333C167.722 293.278 167.778 292.222 167.333 292.667z"/>
<path style="fill:#535858; stroke:none;" d="M177 292L176 297C177.318 295.074 177.651 294.234 177 292z"/>
<path style="fill:#555539; stroke:none;" d="M179 292L178 298C179.495 295.815 179.889 294.508 179 292z"/>
<path style="fill:#5f4b41; stroke:none;" d="M237.333 292.667C237.278 292.722 237.222 293.778 237.667 293.333C237.722 293.278 237.778 292.222 237.333 292.667z"/>
<path style="fill:#524e46; stroke:none;" d="M184.333 293.667C184.278 293.722 184.222 294.778 184.667 294.333C184.722 294.278 184.778 293.222 184.333 293.667z"/>
<path style="fill:#5a6468; stroke:none;" d="M233 293L232 297C233.434 295.607 234.045 294.767 235 293L233 293z"/>
<path style="fill:#555555; stroke:none;" d="M166 294C165.014 295.479 165 295.203 165 297C166.289 295.557 166.401 295.766 166 294z"/>
<path style="fill:#635246; stroke:none;" d="M196 294L194 305C195.861 304.16 197.334 303.202 199 302C198.138 299.144 198.231 295.984 196 294z"/>
<path style="fill:#6a6465; stroke:none;" d="M216 294C217.402 295.694 218.415 296.906 219 299C220.87 297.771 221.224 297.132 222 295L216 294z"/>
<path style="fill:#685f59; stroke:none;" d="M223.667 294.333C223.222 294.778 224.278 294.722 224.333 294.667C224.778 294.222 223.722 294.278 223.667 294.333z"/>
<path style="fill:#635746; stroke:none;" d="M236.333 294.667C236.278 294.722 236.222 295.778 236.667 295.333C236.722 295.278 236.778 294.222 236.333 294.667z"/>
<path style="fill:#808080; stroke:none;" d="M237 294L238 295L237 294z"/>
<path style="fill:#7a7672; stroke:none;" d="M177 295C174.457 302.75 170.38 309.679 170 318C171.968 316.536 172.352 315.394 173 313C174.58 313.684 174.777 313.805 176 315L182 305L177 305C176.064 306.949 175.608 307.55 174 309C175.577 304.771 178.318 299.454 177 295z"/>
<path style="fill:#5e4f47; stroke:none;" d="M183.333 295.667C183.278 295.722 183.222 296.778 183.667 296.333C183.722 296.278 183.778 295.222 183.333 295.667z"/>
<path style="fill:#85807c; stroke:none;" d="M195 295C193.332 298.845 189.8 304.047 194 307C194.658 302.853 195.882 299.028 197 295L195 295z"/>
<path style="fill:#868686; stroke:none;" d="M211 302L218 296C213.611 294.61 211.791 298.128 211 302z"/>
<path style="fill:#7f7573; stroke:none;" d="M222 295C223.506 295.683 224.315 295.826 226 296C224.494 295.317 223.685 295.174 222 295z"/>
<path style="fill:#585854; stroke:none;" d="M202 296C204.291 299.038 206.46 300.609 210 302C207.997 299.058 205.238 297.421 202 296z"/>
<path style="fill:#555555; stroke:none;" d="M216.667 296.333C216.222 296.778 217.278 296.722 217.333 296.667C217.778 296.222 216.722 296.278 216.667 296.333z"/>
<path style="fill:#000000; stroke:none;" d="M212 305C215.245 302.709 217.709 300.245 220 297C215.091 297.223 213.322 300.562 212 305z"/>
<path style="fill:#5a504e; stroke:none;" d="M221 297C221.033 300.513 219.575 303.51 220 307C222.444 303.77 223.888 299.889 225 296L221 297z"/>
<path style="fill:#6f6558; stroke:none;" d="M235 296L234 300C235.303 298.332 235.553 298.008 235 296z"/>
<path style="fill:#77716b; stroke:none;" d="M243.667 296.333C243.222 296.778 244.278 296.722 244.333 296.667C244.778 296.222 243.722 296.278 243.667 296.333z"/>
<path style="fill:#8b837e; stroke:none;" d="M162 297L161 301L164 300L164 297L162 297z"/>
<path style="fill:#70635c; stroke:none;" d="M163 298C164.543 299.267 165.048 299.489 167 300C165.666 298.098 165.337 298.034 163 298z"/>
<path style="fill:#665e59; stroke:none;" d="M181 297C179.705 300.196 178.594 302.56 179 306C181.205 303.269 182.191 300.404 183 297L181 297z"/>
<path style="fill:#706f72; stroke:none;" d="M198 301C200.485 299.987 201.598 299.274 203 297C200.218 297.812 199.373 298.453 198 301z"/>
<path style="fill:#656565; stroke:none;" d="M239 300L240 301C241.513 300.429 242.427 300.136 244 300C244 298.203 243.986 298.478 243 297C241.051 297.936 240.45 298.392 239 300z"/>
<path style="fill:#8a8479; stroke:none;" d="M243 297C243.029 300.079 242.422 302.957 242 306C244.054 303.239 245.874 299.616 243 297z"/>
<path style="fill:#625c4e; stroke:none;" d="M245 297L245 301C245.71 299.24 245.71 298.76 245 297z"/>
<path style="fill:#646364; stroke:none;" d="M155 298L161 301L162 298L155 298z"/>
<path style="fill:#555555; stroke:none;" d="M167 298C168.506 298.683 169.315 298.826 171 299C169.494 298.317 168.685 298.174 167 298z"/>
<path style="fill:#5c5c5c; stroke:none;" d="M175 298C173.747 300.017 173.689 300.623 174 303C175.133 301.101 175.473 300.143 175 298z"/>
<path style="fill:#584b42; stroke:none;" d="M177 298L176 304C177.495 301.815 177.889 300.508 177 298z"/>
<path style="fill:#737373; stroke:none;" d="M149 300L149 302L151 303C154.011 301.325 156.58 301.038 160 301C156.753 298.7 152.787 299.102 149 300z"/>
<path style="fill:#949494; stroke:none;" d="M153 299C154.248 299.685 154.548 299.749 156 300C154.752 299.315 154.452 299.251 153 299z"/>
<path style="fill:#827e7d; stroke:none;" d="M167 299C168.902 300.156 169.722 300.156 172 300C170.231 299.221 168.964 299.088 167 299z"/>
<path style="fill:#6d6d6d; stroke:none;" d="M172 299C170.521 299.986 170.797 300 169 300C170.522 300.855 172.945 301.288 172 299z"/>
<path style="fill:#555555; stroke:none;" d="M213.333 299.667C213.278 299.722 213.222 300.778 213.667 300.333C213.722 300.278 213.778 299.222 213.333 299.667z"/>
<path style="fill:#635c51; stroke:none;" d="M216 302L217 303C218.752 301.67 219.67 300.753 221 299C218.566 299.651 217.717 300.16 216 302z"/>
<path style="fill:#000000; stroke:none;" d="M221 299L222 300L221 299z"/>
<path style="fill:#6a6a55; stroke:none;" d="M162.667 300.333C162.222 300.778 163.278 300.722 163.333 300.667C163.778 300.222 162.722 300.278 162.667 300.333z"/>
<path style="fill:#716c73; stroke:none;" d="M184 305C187.064 304.151 189.813 303.15 193 303C193 301.203 192.986 301.478 192 300C188.505 300.969 185.907 301.847 184 305z"/>
<path style="fill:#73756f; stroke:none;" d="M210 300L210 304C211.084 302.137 211.073 301.882 210 300z"/>
<path style="fill:#776f6d; stroke:none;" d="M234 307C236.832 304.951 238.52 303.166 240 300C236.564 301.653 235.041 303.322 234 307z"/>
<path style="fill:#68635f; stroke:none;" d="M256 300C256.031 301.832 255.921 301.559 257 303C256.749 301.548 256.685 301.248 256 300z"/>
<path style="fill:#000000; stroke:none;" d="M152 301L155 306L157 306L160 301L152 301z"/>
<path style="fill:#918177; stroke:none;" d="M160 301C155.745 307.17 150.77 314.674 149 322C153.807 318.851 161.213 306.864 160 301z"/>
<path style="fill:#645b52; stroke:none;" d="M161.333 301.667C161.278 301.722 161.222 302.778 161.667 302.333C161.722 302.278 161.778 301.222 161.333 301.667z"/>
<path style="fill:#555555; stroke:none;" d="M212.333 301.667C212.278 301.722 212.222 302.778 212.667 302.333C212.722 302.278 212.778 301.222 212.333 301.667z"/>
<path style="fill:#525a4b; stroke:none;" d="M229 303C230.58 302.316 230.777 302.195 232 301C230.42 301.684 230.223 301.805 229 303z"/>
<path style="fill:#665347; stroke:none;" d="M233 301C232.548 303.411 232.227 304.349 234 306C233.829 304.161 233.713 302.681 233 301z"/>
<path style="fill:#6e6863; stroke:none;" d="M242.333 301.667C242.278 301.722 242.222 302.778 242.667 302.333C242.722 302.278 242.778 301.222 242.333 301.667z"/>
<path style="fill:#5f544a; stroke:none;" d="M244 301L244 304C244.696 302.446 244.696 302.554 244 301z"/>
<path style="fill:#615e61; stroke:none;" d="M152 302L154 311C156.012 307.446 154.822 304.697 152 302z"/>
<path style="fill:#7d7a70; stroke:none;" d="M213 306C215.249 304.846 215.846 304.249 217 302C214.751 303.154 214.154 303.751 213 306z"/>
<path style="fill:#827978; stroke:none;" d="M254 302L254 304L256 304L256 302L254 302z"/>
<path style="fill:#715555; stroke:none;" d="M160.333 303.667C160.278 303.722 160.222 304.778 160.667 304.333C160.722 304.278 160.778 303.222 160.333 303.667z"/>
<path style="fill:#605f5c; stroke:none;" d="M209 303C209.968 305.964 210.934 306.503 214 307L212 303L209 303z"/>
<path style="fill:#6b655f; stroke:none;" d="M230 303L230 307C230.71 305.24 230.71 304.759 230 303z"/>
<path style="fill:#848480; stroke:none;" d="M182.667 304.333C182.222 304.778 183.278 304.722 183.333 304.667C183.778 304.222 182.722 304.278 182.667 304.333z"/>
<path style="fill:#000000; stroke:none;" d="M233 304L234 305L233 304z"/>
<path style="fill:#686669; stroke:none;" d="M241 304L241 310C242.282 307.611 242.34 306.35 241 304z"/>
<path style="fill:#575347; stroke:none;" d="M243 304C242.577 306.6 242.064 308.178 244 310C243.839 307.84 243.827 305.986 243 304z"/>
<path style="fill:#574f4f; stroke:none;" d="M247 311C250.454 309.205 252.725 307.156 255 304C251.473 305.62 248.944 307.619 247 311z"/>
<path style="fill:#625e5e; stroke:none;" d="M175 305L174 309C175.797 309 175.521 308.986 177 308C176.309 306.612 176.015 306.139 175 305z"/>
<path style="fill:#555555; stroke:none;" d="M182.667 305.333C182.222 305.778 183.278 305.722 183.333 305.667C183.778 305.222 182.722 305.278 182.667 305.333z"/>
<path style="fill:#3c3c40; stroke:none;" d="M155.333 306.667C155.278 306.722 155.222 307.778 155.667 307.333C155.722 307.278 155.778 306.222 155.333 306.667z"/>
<path style="fill:#5a5654; stroke:none;" d="M156.333 306.667C156.278 306.722 156.222 307.778 156.667 307.333C156.722 307.278 156.778 306.222 156.333 306.667z"/>
<path style="fill:#6d6d49; stroke:none;" d="M177.333 310.667C177.278 310.722 177.222 311.778 177.667 311.333C177.722 311.278 177.778 310.222 177.333 310.667z"/>
<path style="fill:#69695a; stroke:none;" d="M242 310C243.919 311.144 244.732 311.174 247 311C245.231 310.221 243.964 310.088 242 310z"/>
<path style="fill:#000000; stroke:none;" d="M174 311L175 312L174 311z"/>
<path style="fill:#898789; stroke:none;" d="M256 313C258.88 314.659 262.228 314.602 263 311C260.449 311.378 258.373 311.988 256 313z"/>
<path style="fill:#7b7a7b; stroke:none;" d="M263 312C271.118 315.407 284.203 313 293 313L362 313C358.816 311.019 355.652 311.902 352 311.985C346.006 312.122 339.996 312 334 312C310.345 312 286.629 311.577 263 312z"/>
<path style="fill:#5b5b5b; stroke:none;" d="M360 311L361 312L360 311z"/>
<path style="fill:#68554c; stroke:none;" d="M155.333 312.667C155.278 312.722 155.222 313.778 155.667 313.333C155.722 313.278 155.778 312.222 155.333 312.667z"/>
<path style="fill:#736f6f; stroke:none;" d="M263 313C271.357 316.507 284.94 314 294 314L365 314C362.129 312.147 359.367 312.909 356 312.985C349.673 313.128 343.329 313 337 313L263 313z"/>
<path style="fill:#6e6c6b; stroke:none;" d="M152.333 313.667C152.278 313.722 152.222 314.778 152.667 314.333C152.722 314.278 152.778 313.222 152.333 313.667z"/>
<path style="fill:#606067; stroke:none;" d="M173 313L173 321L176 321C175.846 317.676 175.727 315.075 173 313z"/>
<path style="fill:#8e8986; stroke:none;" d="M175 313C175.412 316.492 175.575 319.516 175 323C178.033 320.349 177.099 316.072 175 313z"/>
<path style="fill:#706060; stroke:none;" d="M154.333 314.667C154.278 314.722 154.222 315.778 154.667 315.333C154.722 315.278 154.778 314.222 154.333 314.667z"/>
<path style="fill:#6c5f52; stroke:none;" d="M153.333 316.667C153.278 316.722 153.222 317.778 153.667 317.333C153.722 317.278 153.778 316.222 153.333 316.667z"/>
<path style="fill:#6e6863; stroke:none;" d="M177 316L177 323C178.059 320.466 178.059 318.534 177 316z"/>
<path style="fill:#705f51; stroke:none;" d="M152.333 318.667C152.278 318.722 152.222 319.778 152.667 319.333C152.722 319.278 152.778 318.222 152.333 318.667z"/>
<path style="fill:#4d4f57; stroke:none;" d="M172 319C172.386 321.143 172.745 322.25 174 324C174.986 322.521 175 322.797 175 321L172 319z"/>
<path style="fill:#6f6a60; stroke:none;" d="M151.333 320.667C151.278 320.722 151.222 321.778 151.667 321.333C151.722 321.278 151.778 320.222 151.333 320.667z"/>
<path style="fill:#4e5054; stroke:none;" d="M171 322L171 325C171.696 323.446 171.696 323.554 171 322z"/>
<path style="fill:#7d7c81; stroke:none;" d="M172 322L171 328C174.127 327.066 175.066 326.127 176 323C173.962 323.18 173.552 323.164 172 322z"/>
<path style="fill:#605c58; stroke:none;" d="M176.333 323.667C176.278 323.722 176.222 324.778 176.667 324.333C176.722 324.278 176.778 323.222 176.333 323.667z"/>
<path style="fill:#555258; stroke:none;" d="M170.333 325.667C170.278 325.722 170.222 326.778 170.667 326.333C170.722 326.278 170.778 325.222 170.333 325.667z"/>
</svg>
